<svg xmlns="https://www.w3.org/2000/svg" id="svg-sprite">
    <symbol id="arrow-forward" viewBox="0 0 512 512"><path d="M294.1 256L167 129c-9.4-9.4-9.4-24.6 0-33.9s24.6-9.3 34 0L345 239c9.1 9.1 9.3 23.7.7 33.1L201.1 417c-4.7 4.7-10.9 7-17 7s-12.3-2.3-17-7c-9.4-9.4-9.4-24.6 0-33.9l127-127.1z"/></symbol>
    <symbol id="time" viewBox="0 0 512 512"><g fill-opacity=".9"><path d="M255.8 48C141 48 48 141.2 48 256s93 208 207.8 208c115 0 208.2-93.2 208.2-208S370.8 48 255.8 48zm.2 374.4c-91.9 0-166.4-74.5-166.4-166.4S164.1 89.6 256 89.6 422.4 164.1 422.4 256 347.9 422.4 256 422.4z"/><path d="M266.4 152h-31.2v124.8l109.2 65.5 15.6-25.6-93.6-55.5V152z"/></g></symbol>
    <symbol id="analytics" viewBox="0 0 512 512"><path d="M379.4 178.3l-87.2 133.4C299 320 303 330.5 303 342c0 26.5-21.5 48-48 48s-48-21.5-48-48c0-3 .3-6 .8-8.9l-57.6-33.5c-8.6 8.3-20.3 13.4-33.3 13.4-8.6 0-16.6-2.3-23.6-6.2L32 364.2v57.2c0 23.5 19.2 42.7 42.7 42.7h362.7c23.5 0 42.7-19.2 42.7-42.7V208.8l-58.6-38.9c-8.1 6.3-18.3 10.1-29.4 10.1-4.4 0-8.7-.6-12.7-1.7z"/><path d="M117 217c26.5 0 48 21.5 48 48 0 2.1-.2 4.2-.4 6.2l60.1 33.6c8.3-6.8 18.8-10.8 30.4-10.8 3.6 0 7.1.4 10.4 1.1l87.4-135.4c-5.6-7.8-8.9-17.4-8.9-27.8 0-26.5 21.5-48 48-48s48 21.5 48 48c0 3.9-.5 7.7-1.3 11.3l41.3 27.6V90.7c0-23.5-19.2-42.7-42.7-42.7H74.7C51.2 48 32 67.2 32 90.7V320l40-38.3c-1.9-5.2-3-10.8-3-16.7 0-26.5 21.5-48 48-48z"/></symbol>
    <symbol id="trending-up" viewBox="0 0 512 512"><path d="M345.6 128l51.3 51.3-109.3 109.4-89.6-89.6L32 365.4 63.6 397 198 262.5l89.6 89.7 141.1-141 51.3 51.3V128H345.6z"/></symbol>
    <symbol id="flame" viewBox="0 0 512 512"><path d="M393.3 222.1l-.2 10.4c-.8 11.7-7.9 43.4-22.1 54.7 7-15.2 17.3-47.2 10.2-82.7C361.6 107 287.5 65.6 193 50l-17.2-2.2c39.5 47.2 56.1 81.7 49.7 116.8-2.3 12.6-10 23.4-14 31.6 0 0 2.4-12.9 2-28.7-.3-14.2-6.6-31-18-39.6 3.5 18.4-.8 33.5-9.1 47.7-24.7 42.2-85.4 57.8-90.4 135.8v3.8c0 53.7 25.6 99 68.7 125-6.8-12.3-12-35.2-5.7-60.2 4 23.7 14 36 24.9 51.8 8.2 11.7 19.1 19.3 33.1 24.9s31 7.2 47.9 7.2c55.8 0 91.4-18.1 119.1-50.5s32.1-68 32.1-106.4-8.5-60.9-22.8-84.9z"/></symbol>
    <symbol id="arrow-dropright" viewBox="0 0 512 512"><path d="M192 128l128 128-128 128z"/></symbol>
    <symbol id="flag" viewBox="0 0 512 512"><path d="M396 83.2c-13.8 1.7-31.1 4.2-49.6 4.2-28.8 0-55-6.8-81.5-12.2C238 69.7 210.2 64 180.8 64c-58.6 0-78.5 12.1-80.6 13.4L96 80.3V448h48V269.8c9.7-1.2 21.9-2 36.9-2 27.3 0 52.8 10 79.8 15.5 27.6 5.6 56 11.5 86.9 11.5 18.4 0 34.6-2.4 48.4-4 7.5-.9 14-1.7 20-2.7V80.2c-5 1-12.5 2.1-20 3z"/></symbol>
    <symbol id="arrow-dropdown-circle" viewBox="0 0 512 512"><path d="M256 48C141.125 48 48 141.125 48 256s93.125 208 208 208 208-93.125 208-208S370.875 48 256 48zm0 272l-96-96h192l-96 96z"/></symbol>
    <symbol id="facebook" viewBox="0 0 512 512"><path d="M426.8 64H85.2C73.5 64 64 73.5 64 85.2v341.6c0 11.7 9.5 21.2 21.2 21.2H256V296h-45.9v-56H256v-41.4c0-49.6 34.4-76.6 78.7-76.6 21.2 0 44 1.6 49.3 2.3v51.8h-35.3c-24.1 0-28.7 11.4-28.7 28.2V240h57.4l-7.5 56H320v152h106.8c11.7 0 21.2-9.5 21.2-21.2V85.2c0-11.7-9.5-21.2-21.2-21.2z"/></symbol>
    <symbol id="vk" viewBox="0 0 512 512"><path d="M427 299.1c-8.6-8-15.7-12.8-18.5-20.5-1-2.7-1.3-4.3-1-7.6.4-6 5.5-13.8 39.6-58.9 14.2-18.8 32.7-41.5 32.7-58.5 0-11-4.5-13.7-20.8-13.7h-74c-6.5 0-10.9 8.9-13.6 16.4-2.8 7.5-8.2 19-21.4 43.8-13.8 26-32.3 48.8-40 52.4-2.2 1-3.6 1-5.5.8-1.2-.1-3.8-.8-6.2-3.7-2.3-2.8-5.9-7.7-4.5-53.9.8-25.8 3.7-43.8-1.7-54.8-1.1-2.2-3.5-4.5-4.8-5.5-7.7-5.5-29.4-7.5-48-7.5s-32.9 2.1-40 4.2c-7.1 2.1-15.1 6.9-18.9 12-2.5 3.3 4.3 1.6 10.9 4.6 4 1.8 9.3 4.6 11.2 9.3 8 20.8 9.7 37.3 5.3 66.7-1.1 7.2-2.3 18.5-6.6 25.5-2.4 3.9-7.9 3.6-9.5 3.1-16.1-4.9-28.6-26-41.2-50.7-13.1-25.8-19.8-43.9-23.4-51.3s-9.1-11.4-18.4-11.4H42.3c-5.2 0-9.9 4.3-9.9 9 0 11 18.6 43 29.8 66 20.2 41.4 46.7 81.4 82.4 120.2C182 376.3 233 384 249.3 384s29-.6 33.3-1.5c2-.4 4.1-1.3 5.7-2.5 7.1-5.5 5.8-16 6.3-24.2.5-8.4 1.4-19.5 7-26 5.2-6.1 11.1-7.8 18.6-4.1 7 3.5 12 9.4 17.2 15.1 10.1 10.9 19.3 23.2 31.3 32.2 5.5 4.1 11.5 6.7 17.9 8.7 8.5 2.6 16.5 2.7 25.3 2.3 9.7-.4 17-.3 29-.3s27.7.5 33.1-3.5c2.6-2 6-5 6-11.3 0-11.9-12.2-31.7-53-69.8z"/></symbol>
    <symbol id="twitter" viewBox="0 0 512 512"><path d="M492 109.5c-17.4 7.7-36 12.9-55.6 15.3 20-12 35.4-31 42.6-53.6-18.7 11.1-39.4 19.2-61.5 23.5C399.8 75.8 374.6 64 346.8 64c-53.5 0-96.8 43.4-96.8 96.9 0 7.6.8 15 2.5 22.1-80.5-4-151.9-42.6-199.6-101.3-8.3 14.3-13.1 31-13.1 48.7 0 33.6 17.2 63.3 43.2 80.7-16-.4-31-4.8-44-12.1v1.2c0 47 33.4 86.1 77.7 95-8.1 2.2-16.7 3.4-25.5 3.4-6.2 0-12.3-.6-18.2-1.8 12.3 38.5 48.1 66.5 90.5 67.3-33.1 26-74.9 41.5-120.3 41.5-7.8 0-15.5-.5-23.1-1.4C62.8 432 113.7 448 168.3 448 346.6 448 444 300.3 444 172.2c0-4.2-.1-8.4-.3-12.5C462.6 146 479 129 492 109.5z"/></symbol>
    <symbol id="instagram" viewBox="0 0 512 512"><path d="M336 96c21.2 0 41.3 8.4 56.5 23.5S416 154.8 416 176v160c0 21.2-8.4 41.3-23.5 56.5S357.2 416 336 416H176c-21.2 0-41.3-8.4-56.5-23.5S96 357.2 96 336V176c0-21.2 8.4-41.3 23.5-56.5S154.8 96 176 96h160m0-32H176c-61.6 0-112 50.4-112 112v160c0 61.6 50.4 112 112 112h160c61.6 0 112-50.4 112-112V176c0-61.6-50.4-112-112-112z"/><path d="M360 176c-13.3 0-24-10.7-24-24s10.7-24 24-24c13.2 0 24 10.7 24 24s-10.8 24-24 24zM256 192c35.3 0 64 28.7 64 64s-28.7 64-64 64-64-28.7-64-64 28.7-64 64-64m0-32c-53 0-96 43-96 96s43 96 96 96 96-43 96-96-43-96-96-96z"/></symbol>
    <symbol id="youtube" viewBox="0 0 512 512"><path d="M508.6 148.8c0-45-33.1-81.2-74-81.2C379.2 65 322.7 64 265 64h-18c-57.6 0-114.2 1-169.6 3.6C36.6 67.6 3.5 104 3.5 149 1 184.6-.1 220.2 0 255.8c-.1 35.6 1 71.2 3.4 106.9 0 45 33.1 81.5 73.9 81.5 58.2 2.7 117.9 3.9 178.6 3.8 60.8.2 120.3-1 178.6-3.8 40.9 0 74-36.5 74-81.5 2.4-35.7 3.5-71.3 3.4-107 .2-35.6-.9-71.2-3.3-106.9zM207 353.9V157.4l145 98.2-145 98.3z"/></symbol>
    <symbol id="github" viewBox="0 0 512 512"><path d="M256 32C132.3 32 32 134.9 32 261.7c0 101.5 64.2 187.5 153.2 217.9 1.4.3 2.6.4 3.8.4 8.3 0 11.5-6.1 11.5-11.4 0-5.5-.2-19.9-.3-39.1-8.4 1.9-15.9 2.7-22.6 2.7-43.1 0-52.9-33.5-52.9-33.5-10.2-26.5-24.9-33.6-24.9-33.6-19.5-13.7-.1-14.1 1.4-14.1h.1c22.5 2 34.3 23.8 34.3 23.8 11.2 19.6 26.2 25.1 39.6 25.1 10.5 0 20-3.4 25.6-6 2-14.8 7.8-24.9 14.2-30.7-49.7-5.8-102-25.5-102-113.5 0-25.1 8.7-45.6 23-61.6-2.3-5.8-10-29.2 2.2-60.8 0 0 1.6-.5 5-.5 8.1 0 26.4 3.1 56.6 24.1 17.9-5.1 37-7.6 56.1-7.7 19 .1 38.2 2.6 56.1 7.7 30.2-21 48.5-24.1 56.6-24.1 3.4 0 5 .5 5 .5 12.2 31.6 4.5 55 2.2 60.8 14.3 16.1 23 36.6 23 61.6 0 88.2-52.4 107.6-102.3 113.3 8 7.1 15.2 21.1 15.2 42.5 0 30.7-.3 55.5-.3 63 0 5.4 3.1 11.5 11.4 11.5 1.2 0 2.6-.1 4-.4C415.9 449.2 480 363.1 480 261.7 480 134.9 379.7 32 256 32z"/></symbol>
    <symbol id="website" viewBox="0 0 512 512"><path d="M256 48C141.124 48 48 141.125 48 256s93.124 208 208 208c114.875 0 208-93.125 208-208S370.875 48 256 48zm-21.549 384.999c-39.464-4.726-75.978-22.392-104.519-50.932C96.258 348.393 77.714 303.622 77.714 256c0-42.87 15.036-83.424 42.601-115.659.71 8.517 2.463 17.648 2.014 24.175-1.64 23.795-3.988 38.687 9.94 58.762 5.426 7.819 6.759 19.028 9.4 28.078 2.583 8.854 12.902 13.498 20.019 18.953 14.359 11.009 28.096 23.805 43.322 33.494 10.049 6.395 16.326 9.576 13.383 21.839-2.367 9.862-3.028 15.937-8.13 24.723-1.557 2.681 5.877 19.918 8.351 22.392 7.498 7.497 14.938 14.375 23.111 21.125 12.671 10.469-1.231 24.072-7.274 39.117zm147.616-50.932c-25.633 25.633-57.699 42.486-92.556 49.081 4.94-12.216 13.736-23.07 21.895-29.362 7.097-5.476 15.986-16.009 19.693-24.352 3.704-8.332 8.611-15.555 13.577-23.217 7.065-10.899-17.419-27.336-25.353-30.781-17.854-7.751-31.294-18.21-47.161-29.375-11.305-7.954-34.257 4.154-47.02-1.417-17.481-7.633-31.883-20.896-47.078-32.339-15.68-11.809-14.922-25.576-14.922-42.997 12.282.453 29.754-3.399 37.908 6.478 2.573 3.117 11.42 17.042 17.342 12.094 4.838-4.043-3.585-20.249-5.212-24.059-5.005-11.715 11.404-16.284 19.803-24.228 10.96-10.364 34.47-26.618 32.612-34.047s-23.524-28.477-36.249-25.193c-1.907.492-18.697 18.097-21.941 20.859.086-5.746.172-11.491.26-17.237.055-3.628-6.768-7.352-6.451-9.692.8-5.914 17.262-16.647 21.357-21.357-2.869-1.793-12.659-10.202-15.622-8.968-7.174 2.99-15.276 5.05-22.45 8.039 0-2.488-.302-4.825-.662-7.133a176.585 176.585 0 0 1 45.31-13.152l14.084 5.66 9.944 11.801 9.924 10.233 8.675 2.795 13.779-12.995L282 87.929V79.59c27.25 3.958 52.984 14.124 75.522 29.8-4.032.361-8.463.954-13.462 1.59-2.065-1.22-4.714-1.774-6.965-2.623 6.531 14.042 13.343 27.89 20.264 41.746 7.393 14.801 23.793 30.677 26.673 46.301 3.394 18.416 1.039 35.144 2.896 56.811 1.788 20.865 23.524 44.572 23.524 44.572s10.037 3.419 18.384 2.228c-7.781 30.783-23.733 59.014-46.769 82.052z"/></symbol>
    <symbol id="whatsapp" viewBox="0 0 512 512"><path d="M260.062 32C138.605 32 40.134 129.701 40.134 250.232c0 41.23 11.532 79.79 31.559 112.687L32 480l121.764-38.682c31.508 17.285 67.745 27.146 106.298 27.146C381.535 468.464 480 370.749 480 250.232 480 129.701 381.535 32 260.062 32zm109.362 301.11c-5.174 12.827-28.574 24.533-38.899 25.072-10.314.547-10.608 7.994-66.84-16.434-56.225-24.434-90.052-83.844-92.719-87.67-2.669-3.812-21.78-31.047-20.749-58.455 1.038-27.413 16.047-40.346 21.404-45.725 5.351-5.387 11.486-6.352 15.232-6.413 4.428-.072 7.296-.132 10.573-.011 3.274.124 8.192-.685 12.45 10.639 4.256 11.323 14.443 39.153 15.746 41.989 1.302 2.839 2.108 6.126.102 9.771-2.012 3.653-3.042 5.935-5.961 9.083-2.935 3.148-6.174 7.042-8.792 9.449-2.92 2.665-5.97 5.572-2.9 11.269 3.068 5.693 13.653 24.356 29.779 39.736 20.725 19.771 38.598 26.329 44.098 29.317 5.515 3.004 8.806 2.67 12.226-.929 3.404-3.599 14.639-15.746 18.596-21.169 3.955-5.438 7.661-4.373 12.742-2.329 5.078 2.052 32.157 16.556 37.673 19.551 5.51 2.989 9.193 4.529 10.51 6.9 1.317 2.38.901 13.531-4.271 26.359z"/></symbol>
    <symbol id="google" viewBox="0 0 512 512"><path d="M457.6 224l-2.1-8.9H262V297h115.6c-12 57-67.7 87-113.2 87-33.1 0-68-13.9-91.1-36.3-23.7-23-38.8-56.9-38.8-91.8 0-34.5 15.5-69 38.1-91.7 22.5-22.6 56.6-35.4 90.5-35.4 38.8 0 66.6 20.6 77 30l58.2-57.9c-17.1-15-64-52.8-137.1-52.8-56.4 0-110.5 21.6-150 61C72.2 147.9 52 204 52 256s19.1 105.4 56.9 144.5c40.4 41.7 97.6 63.5 156.5 63.5 53.6 0 104.4-21 140.6-59.1 35.6-37.5 54-89.4 54-143.8 0-22.9-2.3-36.5-2.4-37.1z"/></symbol>
    <symbol id="home" viewBox="0 0 512 512"><path d="M208 448V320h96v128h97.6V256H464L256 64 48 256h62.4v192z"/></symbol>
    <symbol id="mail" viewBox="0 0 512 512"><path d="M437.332 80H74.668C51.199 80 32 99.198 32 122.667v266.666C32 412.802 51.199 432 74.668 432h362.664C460.801 432 480 412.802 480 389.333V122.667C480 99.198 460.801 80 437.332 80zM432 170.667L256 288 80 170.667V128l176 117.333L432 128v42.667z"/></symbol>
    <symbol id="arrow-back" viewBox="0 0 512 512"><path d="M217.9 256L345 129c9.4-9.4 9.4-24.6 0-33.9-9.4-9.4-24.6-9.3-34 0L167 239c-9.1 9.1-9.3 23.7-.7 33.1L310.9 417c4.7 4.7 10.9 7 17 7s12.3-2.3 17-7c9.4-9.4 9.4-24.6 0-33.9L217.9 256z"/></symbol>
    <symbol id="arrow-down" viewBox="0 0 512 512"><path d="M256 294.1L383 167c9.4-9.4 24.6-9.4 33.9 0s9.3 24.6 0 34L273 345c-9.1 9.1-23.7 9.3-33.1.7L95 201.1c-4.7-4.7-7-10.9-7-17s2.3-12.3 7-17c9.4-9.4 24.6-9.4 33.9 0l127.1 127z"/></symbol>
    <symbol id="call" viewBox="0 0 512 512"><path d="M426.666 330.667a250.385 250.385 0 0 1-75.729-11.729c-7.469-2.136-16-1.073-21.332 5.333l-46.939 46.928c-60.802-30.928-109.864-80-140.802-140.803l46.939-46.927c5.332-5.333 7.462-13.864 5.332-21.333-8.537-24.531-12.802-50.136-12.802-76.803C181.333 73.604 171.734 64 160 64H85.333C73.599 64 64 73.604 64 85.333 64 285.864 226.136 448 426.666 448c11.73 0 21.334-9.604 21.334-21.333V352c0-11.729-9.604-21.333-21.334-21.333z"/></symbol>
    <symbol id="funnel" viewBox="0 0 512 512"><path d="M208 400h96v-47.994h-96V400zM32 112v47.994h448V112H32zm80 168.783h288v-49.555H112v49.555z"/></symbol>
    <symbol id="paper" viewBox="0 0 512 512"><path d="M464 64H192c-8.8 0-16 7.7-16 16.5V112H74c-23.1 0-42 18.9-42 42v207.5c0 47.6 39 86.5 86 86.5h279.7c45.1 0 82.3-36.9 82.3-82V80c0-8.8-7.2-16-16-16zm-288 80v192h-42V163.2c0-6.8-.8-13.3-3.3-19.2H176zm-17 255.4C148 410 133.2 416 118.5 416c-14.5 0-28.1-5.7-38.5-16-10.3-10.3-16-24-16-38.5V163.2c0-10.6 8.4-19.2 19-19.2s19 8.6 19 19.2V352c0 8.8 7.2 16 16 16h57.5c-1.5 11.6-7.2 22.6-16.5 31.4zM448 366c0 13.3-5.4 25.8-14.9 35.3-9.5 9.5-22.2 14.7-35.4 14.7H187.3c12.8-14.9 20.7-33.9 20.7-54.5V97h240v269z"/><path d="M248 136h160v56H248zM248 224h160v32H248zM248 288h160v32H248zM408 352H248s0 32-8 32h148.7c19.3 0 19.3-21 19.3-32z"/></symbol>
    <symbol id="people" viewBox="0 0 512 512"><path d="M337.454 232c33.599 0 61.092-27.002 61.092-60 0-32.997-27.493-60-61.092-60s-61.09 27.003-61.09 60c0 32.998 27.491 60 61.09 60zm-162.908 0c33.599 0 61.09-27.002 61.09-60 0-32.997-27.491-60-61.09-60s-61.092 27.003-61.092 60c0 32.998 27.493 60 61.092 60zm0 44C126.688 276 32 298.998 32 346v54h288v-54c0-47.002-97.599-70-145.454-70zm162.908 11.003c-6.105 0-10.325 0-17.454.997 23.426 17.002 32 28 32 58v54h128v-54c0-47.002-94.688-58.997-142.546-58.997z"/></symbol>
    <symbol id="person" viewBox="0 0 512 512"><path d="M256 256c52.805 0 96-43.201 96-96s-43.195-96-96-96-96 43.201-96 96 43.195 96 96 96zm0 48c-63.598 0-192 32.402-192 96v48h384v-48c0-63.598-128.402-96-192-96z"/></symbol>
    <symbol id="settings" viewBox="0 0 512 512"><path d="M413.967 276.8c1.06-6.235 1.06-13.518 1.06-20.8s-1.06-13.518-1.06-20.8l44.667-34.318c4.26-3.118 5.319-8.317 2.13-13.518L418.215 115.6c-2.129-4.164-8.507-6.235-12.767-4.164l-53.186 20.801c-10.638-8.318-23.394-15.601-36.16-20.801l-7.448-55.117c-1.06-4.154-5.319-8.318-10.638-8.318h-85.098c-5.318 0-9.577 4.164-10.637 8.318l-8.508 55.117c-12.767 5.2-24.464 12.482-36.171 20.801l-53.186-20.801c-5.319-2.071-10.638 0-12.767 4.164L49.1 187.365c-2.119 4.153-1.061 10.399 2.129 13.518L96.97 235.2c0 7.282-1.06 13.518-1.06 20.8s1.06 13.518 1.06 20.8l-44.668 34.318c-4.26 3.118-5.318 8.317-2.13 13.518L92.721 396.4c2.13 4.164 8.508 6.235 12.767 4.164l53.187-20.801c10.637 8.318 23.394 15.601 36.16 20.801l8.508 55.117c1.069 5.2 5.318 8.318 10.637 8.318h85.098c5.319 0 9.578-4.164 10.638-8.318l8.518-55.117c12.757-5.2 24.464-12.482 36.16-20.801l53.187 20.801c5.318 2.071 10.637 0 12.767-4.164l42.549-71.765c2.129-4.153 1.06-10.399-2.13-13.518l-46.8-34.317zm-158.499 52c-41.489 0-74.46-32.235-74.46-72.8s32.971-72.8 74.46-72.8 74.461 32.235 74.461 72.8-32.972 72.8-74.461 72.8z"/></symbol>
    <symbol id="notifications" viewBox="0 0 512 512"><path d="M256 464c22.779 0 41.411-18.719 41.411-41.6h-82.823c0 22.881 18.633 41.6 41.412 41.6zm134.589-124.8V224.8c0-63.44-44.516-117.518-103.53-131.041V79.2c0-17.682-13.457-31.2-31.059-31.2s-31.059 13.518-31.059 31.2v14.559c-59.015 13.523-103.53 67.601-103.53 131.041v114.4L80 380.8v20.8h352v-20.8l-41.411-41.6z"/></symbol>
    <symbol id="checkmark" viewBox="0 0 512 512"><path d="M186.301 339.893L96 249.461l-32 30.507L186.301 402 448 140.506 416 110z"/></symbol>
    <symbol id="close" viewBox="0 0 512 512"><path d="M405 136.798L375.202 107 256 226.202 136.798 107 107 136.798 226.202 256 107 375.202 136.798 405 256 285.798 375.202 405 405 375.202 285.798 256z"/></symbol>
    <symbol id="trash" viewBox="0 0 512 512"><path d="M128 405.429C128 428.846 147.198 448 170.667 448h170.667C364.802 448 384 428.846 384 405.429V160H128v245.429zM416 96h-80l-26.785-32H202.786L176 96H96v32h320V96z"/></symbol>
    <symbol id="warning" viewBox="0 0 512 512"><path d="M32 464h448L256 48 32 464zm248-64h-48v-48h48v48zm0-80h-48v-96h48v96z"/></symbol>
    <symbol id="more" viewBox="0 0 512 512"><path d="M296 136c0-22.002-17.998-40-40-40s-40 17.998-40 40 17.998 40 40 40 40-17.998 40-40zm0 240c0-22.002-17.998-40-40-40s-40 17.998-40 40 17.998 40 40 40 40-17.998 40-40zm0-120c0-22.002-17.998-40-40-40s-40 17.998-40 40 17.998 40 40 40 40-17.998 40-40z"/></symbol>
    <symbol id="create" viewBox="0 0 512 512"><path d="M64 368v80h80l235.727-235.729-79.999-79.998L64 368zm377.602-217.602c8.531-8.531 8.531-21.334 0-29.865l-50.135-50.135c-8.531-8.531-21.334-8.531-29.865 0l-39.468 39.469 79.999 79.998 39.469-39.467z"/></symbol>
    <symbol id="add" viewBox="0 0 512 512"><path d="M416 277.333H277.333V416h-42.666V277.333H96v-42.666h138.667V96h42.666v138.667H416v42.666z"/></symbol>
    <symbol id="delete" viewBox="0 0 1024 1024"><path d="M896 149H341q-9 0-18 3.5t-16 9.5L9 503q-10 13-10 28t10 28l298 341q7 10 16 13.5t18 3.5h555q54 0 91-36.5t37-91.5V277q0-54-37-91t-91-37zm43 640q0 20-12 31.5T896 832H363L102 533l261-298h533q19 0 31 11.5t12 30.5v512zM798 375q-13-12-30-12t-30 12l-98 99-98-99q-13-12-30-12t-30 12q-13 13-13 30t13 30l98 98-98 98q-13 13-13 30t13 30q7 7 15.5 10t14.5 3 14.5-3 15.5-10l98-98 98 98q7 7 15.5 10t14.5 3 14.5-3 15.5-10q13-13 13-30t-13-30l-98-98 98-98q13-13 13-30t-13-30z"/></symbol>
    <symbol id="search" viewBox="0 0 1024 1024"><path d="M926 887L768 730q38-48 61.5-110T853 491q0-80-30-150t-82-122-122-82-150-30-150 30-122 82-82 122-30 150 30 150 82 122 122 82 150 30q68 0 129.5-22T708 789l158 158q7 7 15.5 10t14.5 3 14.5-3 15.5-10q13-13 13-30t-13-30zM171 491q0-63 23-117 23-55 63.5-95t94.5-64q55-23 117-23 63 0 117 23 55 24 95 64t64 95q23 54 23 117 0 60-23.5 115T683 700q-42 41-95.5 63T474 785q-64 2-120-21-55-22-96-62t-64-95q-23-54-23-116z"/></symbol>
<symbol viewBox="0 0 512 512" id="eye-outline"><path d="M255.66,112c-77.94,0-157.89,45.11-220.83,135.33a16,16,0,0,0-.27,17.77C82.92,340.8,161.8,400,255.66,400,348.5,400,429,340.62,477.45,264.75a16.14,16.14,0,0,0,0-17.47C428.89,172.28,347.8,112,255.66,112Z" style="fill:none;stroke:currentColor;stroke-linecap:round;stroke-linejoin:round;stroke-width:32px"/><circle cx="256" cy="256" r="80" style="fill:none;stroke:currentColor;stroke-miterlimit:10;stroke-width:32px"/></symbol>
    <symbol id="lock" viewBox="0 0 512 512"><path d="M376 186h-20v-40c0-55-45-100-100-100S156 91 156 146v40h-20c-22.002 0-40 17.998-40 40v200c0 22.002 17.998 40 40 40h240c22.002 0 40-17.998 40-40V226c0-22.002-17.998-40-40-40zM256 368c-22.002 0-40-17.998-40-40s17.998-40 40-40 40 17.998 40 40-17.998 40-40 40zm62.002-182H193.998v-40c0-34.004 28.003-62.002 62.002-62.002 34.004 0 62.002 27.998 62.002 62.002v40z"/></symbol>
    <symbol id="compass" viewBox="0 0 512 512"><path d="M256 231.358c-13.442 0-24.643 11.2-24.643 24.642s11.2 24.643 24.643 24.643 24.643-11.2 24.643-24.643-11.201-24.642-24.643-24.642zM256 32C132.8 32 32 132.8 32 256s100.8 224 224 224 224-100.8 224-224S379.2 32 256 32zm49.284 273.284L121.6 390.4l85.116-183.679L390.4 121.6l-85.116 183.684z"/></symbol>
    <symbol viewBox="0 0 36 36" id="love"><path d="M35.885 11.833c0-5.45-4.418-9.868-9.867-9.868-3.308 0-6.227 1.633-8.018 4.129-1.791-2.496-4.71-4.129-8.017-4.129-5.45 0-9.868 4.417-9.868 9.868 0 .772.098 1.52.266 2.241C1.751 22.587 11.216 31.568 18 34.034c6.783-2.466 16.249-11.447 17.617-19.959.17-.721.268-1.469.268-2.242z"/></symbol>
    <symbol viewBox="10 10 40 40" id="i-pointer-l" width="100%" height="100%"><path d="M36.5 39.3c1.2 2.1 3.6 5.9 4.1 9.2-2.8.7-5.6 1.2-8.8.5 2-2 5.1 0 7.1-1.7-8.4-1.1-15.2-12-17.9-18.4-1.9-4.5-2.6-14.2.2-18.3-1.5 14.6 2.9 28.2 16.5 35.3-.2-2.3-2-3.9-1.2-6.6z"></path></symbol>
    <symbol viewBox="10 10 40 40" id="i-pointer-r" width="100%" height="100%"><path d="M23.5 39.3c-1.2 2.1-3.6 5.9-4.1 9.2 2.8.7 5.6 1.2 8.8.5-2-2-5.1 0-7.1-1.7 8.4-1.1 15.2-12 17.9-18.4 1.9-4.5 2.6-14.2-.2-18.3 1.5 14.6-2.9 28.2-16.5 35.3.2-2.3 2-3.9 1.2-6.6z"></path></symbol>
    <symbol id="briefcase" viewBox="0 0 512 512"><path d="M352 144v-39.6C352 82 334 64 311.6 64H200.4C178 64 160 82 160 104.4V144H48v263.6C48 430 66 448 88.4 448h335.2c22.4 0 40.4-18 40.4-40.4V144H352zm-40 0H200v-40h112v40z"/></symbol>
    <symbol id="bookmark" viewBox="0 0 512 512"><path d="M360 64H152c-22.002 0-40 17.998-40 40v344l144-64 144 64V104c0-22.002-17.998-40-40-40z"/></symbol>
    <symbol id="chatbubbles" viewBox="0 0 512 512"><path d="M132.8 368c-20.2 0-44.8-24.6-44.8-44.8V160h-9.6C61.7 160 48 173.7 48 190.4V464l58.5-58h215.1c16.7 0 30.4-14.1 30.4-30.9V368H132.8z"/><path d="M429.1 48H149.9C130.7 48 115 63.7 115 82.9V309c0 19.2 15.7 35 34.9 35h238.2l75.9 53V82.9c0-19.2-15.7-34.9-34.9-34.9z"/></symbol>
    <symbol id="sad" viewBox="0 0 512 512"><path d="M256 288c-45.443 0-83.675 26.076-102.205 64h204.41c-18.53-37.924-56.762-64-102.205-64z"/><path d="M256 48C140.563 48 48 141.6 48 256s92.563 208 208 208 208-93.6 208-208S370.401 48 256 48zm0 374.4c-91.518 0-166.404-74.883-166.404-166.4 0-91.518 74.887-166.4 166.404-166.4S422.404 164.482 422.404 256 347.518 422.4 256 422.4z"/><path d="M328.8 235.2c17.683 0 31.201-13.518 31.201-31.2s-13.519-31.2-31.201-31.2c-17.682 0-31.2 13.518-31.2 31.2s13.518 31.2 31.2 31.2zM183.2 235.2c17.682 0 31.2-13.518 31.2-31.2s-13.519-31.2-31.2-31.2c-17.683 0-31.201 13.518-31.201 31.2s13.519 31.2 31.201 31.2z"/></symbol><symbol id="download" viewBox="0 0 512 512"><path d="M416 199.5h-91.4V64H187.4v135.5H96l160 158.1 160-158.1zM96 402.8V448h320v-45.2H96z"/></symbol>
    <filter id="blur" width="110%" height="100%">
    <feGaussianBlur stdDeviation="2" result="blur" />
  </filter>

</svg>
