<svg xmlns="https://www.w3.org/2000/svg" id="svgSprite">
    <symbol id="analytics" viewBox="0 0 512 512"><path d="M379.4 178.3l-87.2 133.4C299 320 303 330.5 303 342c0 26.5-21.5 48-48 48s-48-21.5-48-48c0-3 .3-6 .8-8.9l-57.6-33.5c-8.6 8.3-20.3 13.4-33.3 13.4-8.6 0-16.6-2.3-23.6-6.2L32 364.2v57.2c0 23.5 19.2 42.7 42.7 42.7h362.7c23.5 0 42.7-19.2 42.7-42.7V208.8l-58.6-38.9c-8.1 6.3-18.3 10.1-29.4 10.1-4.4 0-8.7-.6-12.7-1.7z"/><path d="M117 217c26.5 0 48 21.5 48 48 0 2.1-.2 4.2-.4 6.2l60.1 33.6c8.3-6.8 18.8-10.8 30.4-10.8 3.6 0 7.1.4 10.4 1.1l87.4-135.4c-5.6-7.8-8.9-17.4-8.9-27.8 0-26.5 21.5-48 48-48s48 21.5 48 48c0 3.9-.5 7.7-1.3 11.3l41.3 27.6V90.7c0-23.5-19.2-42.7-42.7-42.7H74.7C51.2 48 32 67.2 32 90.7V320l40-38.3c-1.9-5.2-3-10.8-3-16.7 0-26.5 21.5-48 48-48z"/></symbol>
    <symbol id="outlet" viewBox="0 0 512 512"><path d="M369.5 32H142.4C81.5 32 32 82.6 32 144.6v222.8c0 62 49.5 112.6 110.4 112.6h227.2c60.9 0 110.5-50.6 110.5-112.6V144.6C480 82.6 430.5 32 369.5 32zM175 251v.7c0 10.9-9.1 20.4-19.9 20.4h-23.3c-10.8 0-19.9-9.5-19.9-20.4V148.1c1-10.8 9.2-20.2 19.9-20.2h23.3c10.9 0 19.9 9.8 19.9 20.8V251zm122 147.4c0 11.4-8.9 17.6-20.1 17.6h-41.8c-11.2 0-20.1-8.1-20.1-19.6v-29.3c0-23.3 18.1-42.3 41-42.3s41 19 41 42.3v31.3zM400 251v.7c0 10.9-9.1 20.4-19.9 20.4h-24.3c-10.8 0-19.9-9.5-19.9-20.4V148.1c1-10.8 9.2-20.2 19.9-20.2h24.3c10.8 0 19.9 9.8 19.9 20.8V251z"/></symbol>
<symbol id="refresh" viewBox="0 0 512 512"><path d="M256 388c-72.597 0-132-59.405-132-132 0-72.601 59.403-132 132-132 36.3 0 69.299 15.4 92.406 39.601L278 234h154V80l-51.698 51.702C348.406 99.798 304.406 80 256 80c-96.797 0-176 79.203-176 176s78.094 176 176 176c81.045 0 148.287-54.134 169.401-128H378.85c-18.745 49.561-67.138 84-122.85 84z"/></symbol>
    <symbol id="bookmark" viewBox="0 0 512 512"><path d="M360 64H152c-22.002 0-40 17.998-40 40v344l144-64 144 64V104c0-22.002-17.998-40-40-40z"/></symbol>
    <symbol id="paper" viewBox="0 0 512 512"><path d="M464 64H192c-8.8 0-16 7.7-16 16.5V112H74c-23.1 0-42 18.9-42 42v207.5c0 47.6 39 86.5 86 86.5h279.7c45.1 0 82.3-36.9 82.3-82V80c0-8.8-7.2-16-16-16zm-288 80v192h-42V163.2c0-6.8-.8-13.3-3.3-19.2H176zm-17 255.4C148 410 133.2 416 118.5 416c-14.5 0-28.1-5.7-38.5-16-10.3-10.3-16-24-16-38.5V163.2c0-10.6 8.4-19.2 19-19.2s19 8.6 19 19.2V352c0 8.8 7.2 16 16 16h57.5c-1.5 11.6-7.2 22.6-16.5 31.4zM448 366c0 13.3-5.4 25.8-14.9 35.3-9.5 9.5-22.2 14.7-35.4 14.7H187.3c12.8-14.9 20.7-33.9 20.7-54.5V97h240v269z"/><path d="M248 136h160v56H248zM248 224h160v32H248zM248 288h160v32H248zM408 352H248s0 32-8 32h148.7c19.3 0 19.3-21 19.3-32z"/></symbol>
    <symbol id="image" viewBox="0 0 512 512"><path d="M448 405.333V106.667C448 83.198 428.802 64 405.333 64H106.667C83.198 64 64 83.198 64 106.667v298.666C64 428.802 83.198 448 106.667 448h298.666C428.802 448 448 428.802 448 405.333zM181.333 288l53.334 64 74.666-96 96 128H106.667l74.666-96z"/></symbol>
    <symbol id="images" viewBox="0 0 512 512"><path d="M457.6 140.2l-82.5-4-4.8-53.8c-1-11.3-11.1-19.2-22.9-18.3L51.5 88.4c-11.8 1-20.3 10.5-19.4 21.7l21.2 235.8c1 11.3 11.2 19.2 22.9 18.3l15-1.2-2.4 45.8c-.6 12.6 9.2 22.8 22.4 23.5L441.3 448c13.2.6 24.1-8.6 24.8-21.2L480 163.5c.6-12.5-9.3-22.7-22.4-23.3zm-354.9 5.3l-7.1 134.8L78.1 305 62 127v-.5-.5c1-5 4.4-9 9.6-9.4l261-21.4c5.2-.4 9.7 3 10.5 7.9 0 .2.3.2.3.4 0 .1.3.2.3.4l2.7 30.8-219-10.5c-13.2-.4-24.1 8.8-24.7 21.3zm334 236.9l-84.8-99.5-37.4 34.3-69.2-80.8-122.7 130.7L133 168v-.4c1-5.4 6.2-9.3 11.9-9l291.2 14c5.8.3 10.3 4.7 10.4 10.2 0 .2.3.3.3.5l-10.1 199.1z"/><path d="M384 256c17.6 0 32-14.4 32-32s-14.3-32-32-32c-17.6 0-32 14.3-32 32s14.3 32 32 32z"/></symbol>
    <symbol id="people" viewBox="0 0 512 512"><path d="M337.454 232c33.599 0 61.092-27.002 61.092-60 0-32.997-27.493-60-61.092-60s-61.09 27.003-61.09 60c0 32.998 27.491 60 61.09 60zm-162.908 0c33.599 0 61.09-27.002 61.09-60 0-32.997-27.491-60-61.09-60s-61.092 27.003-61.092 60c0 32.998 27.493 60 61.092 60zm0 44C126.688 276 32 298.998 32 346v54h288v-54c0-47.002-97.599-70-145.454-70zm162.908 11.003c-6.105 0-10.325 0-17.454.997 23.426 17.002 32 28 32 58v54h128v-54c0-47.002-94.688-58.997-142.546-58.997z"/></symbol>
    <symbol id="contact" viewBox="0 0 512 512"><path d="M256 48C141.6 48 48 141.6 48 256s93.6 208 208 208 208-93.6 208-208S370.4 48 256 48zm0 62.4c34.3 0 62.4 28.1 62.4 62.4s-28.1 62.4-62.4 62.4-62.4-28.1-62.4-62.4 28.1-62.4 62.4-62.4zm0 300.4c-52 0-97.8-27-124.8-66.6 1-41.6 83.2-64.5 124.8-64.5s123.8 22.9 124.8 64.5c-27 39.5-72.8 66.6-124.8 66.6z"/></symbol>
    <symbol id="contacts" viewBox="0 0 512 512"><path d="M239.208 343.937c-17.78 10.103-38.342 15.876-60.255 15.876-21.909 0-42.467-5.771-60.246-15.87C71.544 358.331 42.643 406 32 448h293.912c-10.639-42-39.537-89.683-86.704-104.063zM178.953 120.035c-58.479 0-105.886 47.394-105.886 105.858 0 58.464 47.407 105.857 105.886 105.857s105.886-47.394 105.886-105.857c0-58.464-47.408-105.858-105.886-105.858zm0 186.488c-33.671 0-62.445-22.513-73.997-50.523H252.95c-11.554 28.011-40.326 50.523-73.997 50.523z"/><g><path d="M322.602 384H480c-10.638-42-39.537-81.691-86.703-96.072-17.781 10.104-38.343 15.873-60.256 15.873-14.823 0-29.024-2.654-42.168-7.49-7.445 12.47-16.927 25.592-27.974 34.906C289.245 341.354 309.146 364 322.602 384zM306.545 200h100.493c-11.554 28-40.327 50.293-73.997 50.293-8.875 0-17.404-1.692-25.375-4.51a128.411 128.411 0 0 1-6.52 25.118c10.066 3.174 20.779 4.862 31.895 4.862 58.479 0 105.886-47.41 105.886-105.872 0-58.465-47.407-105.866-105.886-105.866-37.49 0-70.427 19.703-89.243 49.09C275.607 131.383 298.961 163 306.545 200z"/></g></symbol>
    <symbol id="person" viewBox="0 0 512 512"><path d="M256 256c52.805 0 96-43.201 96-96s-43.195-96-96-96-96 43.201-96 96 43.195 96 96 96zm0 48c-63.598 0-192 32.402-192 96v48h384v-48c0-63.598-128.402-96-192-96z"/></symbol>
    <symbol id="finger-print" viewBox="0 0 512 512"><path d="M78.1 205.6c-2.4 0-4.9-.6-7.1-1.9-6.7-3.9-9-12.4-5.1-19.1 17.8-30 71.9-100.1 190.1-100.1 51.2 0 96.1 13.6 133.4 40.4 30.7 22 47.9 46.9 56.1 58.9 4.4 6.4 2.7 15-3.7 19.4-6.4 4.3-15.2 2.7-19.6-3.7-14.9-21.6-60.1-87.2-166.2-87.2-103.6 0-150.4 60.4-165.7 86.3-2.6 4.6-7.3 7-12.2 7z"/><path d="M315.5 480c-1.2 0-2.3-.1-3.5-.4-85.7-21.5-117.7-108.1-119-111.7l-.2-.8c-.7-2.5-17.9-61.9 8.5-96.7 12.1-15.9 30.5-24 54.8-24 22.6 0 38.9 7.1 50.1 21.8 9.2 12 12.9 26.8 16.5 41.1 7.5 29.7 12.9 45.3 44.1 46.9 13.7.7 22.7-7.4 27.8-14.3 13.8-18.8 16.2-49.5 5.8-76.5-13.4-35-60.8-100.9-144.4-100.9-35.7 0-68.5 11.6-94.8 33.4-21.8 18.1-39.1 43.6-47.4 69.8-15.4 48.8 4.8 125.5 5 126.2 2 7.4-2.5 15.1-10 17-7.5 2-15.3-2.5-17.3-9.9-.9-3.5-22.5-85.3-4.7-141.7C106.2 198.2 166 136.6 256 136.6c41.6 0 80.9 14.3 113.7 41.3 25.4 21 46.2 49.2 57 77.4 13.8 36 10.1 76.4-9.4 102.8-13 17.6-31.5 26.8-52 25.8-53.4-2.7-63-40.4-70-67.9-7.2-28.2-11.8-41.8-39.3-41.8-15.1 0-25.7 4.2-32.3 12.9-9 11.9-9.7 30.5-8.7 44 1 14.1 4 25.5 4.7 27.8 2.2 5.6 30.8 76.5 99.3 93.7 7.6 1.9 12.1 9.5 10.2 16.9-1.7 6.3-7.4 10.5-13.7 10.5z"/><path d="M205.5 473.6c-3.8 0-7.5-1.5-10.3-4.4-34.3-36.4-53.7-77.1-61-128v-.3c-4.1-33.7 1.9-81.4 31.3-114.2 21.7-24.2 52.2-36.5 90.5-36.5 45.3 0 80.9 21.3 103.1 61.5 16.1 29.2 19.3 58.3 19.4 59.5.8 7.7-4.9 14.5-12.6 15.3-7.7.8-14.7-4.8-15.5-12.4 0-.3-2.8-25.3-16.5-49.7-17.2-30.7-43.4-46.3-78-46.3-29.9 0-53.3 9.1-69.4 27.1-23.2 25.9-27.7 65.8-24.5 92.2 6.4 45 23.5 80.8 53.7 112.8 5.3 5.6 5 14.5-.7 19.7-2.6 2.4-6.1 3.7-9.5 3.7z"/><path d="M363.5 433.5c-30 0-55.5-8.4-75.9-25.1-41-33.4-45.6-87.8-45.8-90.1-.6-7.7 5.2-14.4 13-15 7.8-.6 14.5 5.1 15.1 12.8.1.8 4.2 45.3 35.8 70.9 18.7 15.1 43.7 21.1 74.5 17.6 7.7-.9 14.7 4.6 15.6 12.3.9 7.7-4.7 14.6-12.4 15.4-6.8.8-13.5 1.2-19.9 1.2zM387.2 62.6C375.5 54.9 334 32 256 32c-81.9 0-123.5 25.3-132.7 31.7-.6.4-1.2.8-1.7 1.3-.1.1-.2.1-.2.1-2.9 2.6-4.7 6.3-4.7 10.4 0 7.7 6.3 13.9 14.1 13.9 3.1 0 5.9-1 8.2-2.6l-.1.1c.4-.3 36.3-27 117.1-27s116.7 26.8 117.1 27l-.1-.1.2-.2c2.4 1.8 5.3 2.8 8.5 2.8 7.8 0 14.1-6.2 14.1-13.9 0-5.8-3.5-10.8-8.6-12.9z"/></symbol>
    <symbol id="color-palette" viewBox="0 0 512 512"><path d="M256 64C150.401 64 64 150.401 64 256c0 105.604 86.401 192 192 192 18.136 0 32-13.864 32-32 0-8.531-3.198-16-8.531-21.333-5.333-5.334-8.531-12.803-8.531-21.334 0-18.135 13.864-32 32-32h38.396c58.667 0 106.667-48 106.667-106.666C448 140.802 361.604 64 256 64zM138.667 256c-18.136 0-32-13.864-32-32s13.864-32 32-32c18.135 0 32 13.864 32 32s-13.865 32-32 32zm64-85.333c-18.136 0-32-13.865-32-32 0-18.136 13.864-32 32-32 18.135 0 32 13.864 32 32 0 18.135-13.865 32-32 32zm106.666 0c-18.135 0-32-13.865-32-32 0-18.136 13.865-32 32-32 18.136 0 32 13.864 32 32 0 18.135-13.864 32-32 32zm64 85.333c-18.135 0-32-13.864-32-32s13.865-32 32-32c18.136 0 32 13.864 32 32s-13.864 32-32 32z"/></symbol>
    <symbol id="settings" viewBox="0 0 512 512"><path d="M413.967 276.8c1.06-6.235 1.06-13.518 1.06-20.8s-1.06-13.518-1.06-20.8l44.667-34.318c4.26-3.118 5.319-8.317 2.13-13.518L418.215 115.6c-2.129-4.164-8.507-6.235-12.767-4.164l-53.186 20.801c-10.638-8.318-23.394-15.601-36.16-20.801l-7.448-55.117c-1.06-4.154-5.319-8.318-10.638-8.318h-85.098c-5.318 0-9.577 4.164-10.637 8.318l-8.508 55.117c-12.767 5.2-24.464 12.482-36.171 20.801l-53.186-20.801c-5.319-2.071-10.638 0-12.767 4.164L49.1 187.365c-2.119 4.153-1.061 10.399 2.129 13.518L96.97 235.2c0 7.282-1.06 13.518-1.06 20.8s1.06 13.518 1.06 20.8l-44.668 34.318c-4.26 3.118-5.318 8.317-2.13 13.518L92.721 396.4c2.13 4.164 8.508 6.235 12.767 4.164l53.187-20.801c10.637 8.318 23.394 15.601 36.16 20.801l8.508 55.117c1.069 5.2 5.318 8.318 10.637 8.318h85.098c5.319 0 9.578-4.164 10.638-8.318l8.518-55.117c12.757-5.2 24.464-12.482 36.16-20.801l53.187 20.801c5.318 2.071 10.637 0 12.767-4.164l42.549-71.765c2.129-4.153 1.06-10.399-2.13-13.518l-46.8-34.317zm-158.499 52c-41.489 0-74.46-32.235-74.46-72.8s32.971-72.8 74.46-72.8 74.461 32.235 74.461 72.8-32.972 72.8-74.461 72.8z"/></symbol>
    <symbol id="options" viewBox="0 0 512 512"><path d="M32 384h272v32H32zM400 384h80v32h-80zM384 447.5c0 17.949-14.327 32.5-32 32.5-17.673 0-32-14.551-32-32.5v-95c0-17.949 14.327-32.5 32-32.5 17.673 0 32 14.551 32 32.5v95z"/><g><path d="M32 240h80v32H32zM208 240h272v32H208zM192 303.5c0 17.949-14.327 32.5-32 32.5-17.673 0-32-14.551-32-32.5v-95c0-17.949 14.327-32.5 32-32.5 17.673 0 32 14.551 32 32.5v95z"/></g><g><path d="M32 96h272v32H32zM400 96h80v32h-80zM384 159.5c0 17.949-14.327 32.5-32 32.5-17.673 0-32-14.551-32-32.5v-95c0-17.949 14.327-32.5 32-32.5 17.673 0 32 14.551 32 32.5v95z"/></g></symbol>
    <symbol id="notifications" viewBox="0 0 512 512"><path d="M256 464c22.779 0 41.411-18.719 41.411-41.6h-82.823c0 22.881 18.633 41.6 41.412 41.6zm134.589-124.8V224.8c0-63.44-44.516-117.518-103.53-131.041V79.2c0-17.682-13.457-31.2-31.059-31.2s-31.059 13.518-31.059 31.2v14.559c-59.015 13.523-103.53 67.601-103.53 131.041v114.4L80 380.8v20.8h352v-20.8l-41.411-41.6z"/></symbol>
    <symbol id="checkmark" viewBox="0 0 512 512"><path d="M186.301 339.893L96 249.461l-32 30.507L186.301 402 448 140.506 416 110z"/></symbol>
    <symbol id="close" viewBox="0 0 512 512"><path d="M405 136.798L375.202 107 256 226.202 136.798 107 107 136.798 226.202 256 107 375.202 136.798 405 256 285.798 375.202 405 405 375.202 285.798 256z"/></symbol>
    <symbol id="trash" viewBox="0 0 512 512"><path d="M128 405.429C128 428.846 147.198 448 170.667 448h170.667C364.802 448 384 428.846 384 405.429V160H128v245.429zM416 96h-80l-26.785-32H202.786L176 96H96v32h320V96z"/></symbol>
    <symbol id="warning" viewBox="0 0 512 512"><path d="M32 464h448L256 48 32 464zm248-64h-48v-48h48v48zm0-80h-48v-96h48v96z"/></symbol>
    <symbol id="more" viewBox="0 0 512 512"><path d="M296 136c0-22.002-17.998-40-40-40s-40 17.998-40 40 17.998 40 40 40 40-17.998 40-40zm0 240c0-22.002-17.998-40-40-40s-40 17.998-40 40 17.998 40 40 40 40-17.998 40-40zm0-120c0-22.002-17.998-40-40-40s-40 17.998-40 40 17.998 40 40 40 40-17.998 40-40z"/></symbol>
    <symbol id="create" viewBox="0 0 512 512"><path d="M64 368v80h80l235.727-235.729-79.999-79.998L64 368zm377.602-217.602c8.531-8.531 8.531-21.334 0-29.865l-50.135-50.135c-8.531-8.531-21.334-8.531-29.865 0l-39.468 39.469 79.999 79.998 39.469-39.467z"/></symbol>
    <symbol id="add" viewBox="0 0 512 512"><path d="M416 277.333H277.333V416h-42.666V277.333H96v-42.666h138.667V96h42.666v138.667H416v42.666z"/></symbol>
    <symbol id="delete" viewBox="0 0 1024 1024"><path d="M896 149H341q-9 0-18 3.5t-16 9.5L9 503q-10 13-10 28t10 28l298 341q7 10 16 13.5t18 3.5h555q54 0 91-36.5t37-91.5V277q0-54-37-91t-91-37zm43 640q0 20-12 31.5T896 832H363L102 533l261-298h533q19 0 31 11.5t12 30.5v512zM798 375q-13-12-30-12t-30 12l-98 99-98-99q-13-12-30-12t-30 12q-13 13-13 30t13 30l98 98-98 98q-13 13-13 30t13 30q7 7 15.5 10t14.5 3 14.5-3 15.5-10l98-98 98 98q7 7 15.5 10t14.5 3 14.5-3 15.5-10q13-13 13-30t-13-30l-98-98 98-98q13-13 13-30t-13-30z"/></symbol>
    <symbol id="search" viewBox="0 0 512 512"><path d="M337.509 305.372h-17.501l-6.571-5.486c20.791-25.232 33.922-57.054 33.922-93.257C347.358 127.632 283.896 64 205.135 64 127.452 64 64 127.632 64 206.629s63.452 142.628 142.225 142.628c35.011 0 67.831-13.167 92.991-34.008l6.561 5.487v17.551L415.18 448 448 415.086 337.509 305.372zm-131.284 0c-54.702 0-98.463-43.887-98.463-98.743 0-54.858 43.761-98.742 98.463-98.742 54.7 0 98.462 43.884 98.462 98.742 0 54.856-43.762 98.743-98.462 98.743z"/></symbol>
    <symbol id="lock" viewBox="0 0 512 512"><path d="M376 186h-20v-40c0-55-45-100-100-100S156 91 156 146v40h-20c-22.002 0-40 17.998-40 40v200c0 22.002 17.998 40 40 40h240c22.002 0 40-17.998 40-40V226c0-22.002-17.998-40-40-40zM256 368c-22.002 0-40-17.998-40-40s17.998-40 40-40 40 17.998 40 40-17.998 40-40 40zm62.002-182H193.998v-40c0-34.004 28.003-62.002 62.002-62.002 34.004 0 62.002 27.998 62.002 62.002v40z"/></symbol>
    <symbol id="rss" viewBox="0 0 512 512"><path d="M119.9 336.1c-30.8 0-55.9 25.1-55.9 55.8 0 30.8 25.1 55.6 55.9 55.6 30.9 0 55.9-24.9 55.9-55.6 0-30.7-25-55.8-55.9-55.8z"/><path d="M64 192v79.9c48 0 94.1 14.2 128 48.1 33.9 33.9 48 79.9 48 128h80c0-139.9-116-256-256-256z"/><path d="M64 64v79.9c171 0 303.9 133 303.9 304.1H448C448 236.3 276 64 64 64z"/></symbol>

    <symbol id="logo" viewBox="0 0 200 70"><path d="m 190.03401,19.274193 q 0.96,0 2.96,0.48 0.96,0.24 1.92,0.64 3.28,1.52 3.28,4.64 v 0.32 q 0,2.08 -1.68,4.96 -2.96,4.8 -8.24,8.16 l -7.2,0.16 q -0.88,1.12 -1.36,2.08 -1.92,3.52 -2.24,6 0.08,0.4 0.8,0.4 h 0.08 q 1.84,0 6.56,-2.24 3.44,-1.6 7.2,-4.4 1.6,-1.2 3.76,-3.2 0.48,0.72 0.48,1.76 0,2 -2.4,4.72 -1.12,1.2 -2.16,2.16 -2.72,2.24 -5.04,3.68 -4.88,2.96 -7.6,3.36 -0.88,0.16 -1.6,0.16 h -0.32 q -2.4,0 -4.08,-1.76 -1.84,-2.4 -1.84,-5.76 v -0.48 q 0,-4.08 2.8,-10 4.56,-9.68 11.92,-14 1.28,-0.72 2.64,-1.28 1.2,-0.56 1.36,-0.56 z m -7.04,14.8 3.44,0.16 q 1.2,-0.4 2.08,-1.04 0.4,-0.24 1.28,-1.12 0.88,-1.04 1.36,-2.08 0.96,-1.92 0.96,-3.36 0,-0.88 -0.48,-1.12 -0.16,0 -0.16,0 -1.04,0.16 -2.72,1.6 -1.68,1.52 -2.48,2.4 -1.92,2.4 -3.28,4.56 z m -44.25125,-17.36 h 1.92 q 4.4,0 6.32,2.32 -2.08,1.84 -2.08,1.92 3.12,0 4.72,2.72 -0.8,4.16 -2.48,8.72 3.04,1.44 4.16,1.44 1.68,-3.2 3.2,-5.52 -2.64,-0.88 -2.64,-2.64 v -0.48 q 0,-2.88 4.32,-7.2 1.52,-1.28 2.8,-1.28 h 0.48 q 3.36,0 5.36,2.8 -1.36,1.36 -4,5.36 v 0.08 h 0.08 q 1.6,0 5.92,-2.72 h 0.16 q 1.44,0 3.76,1.84 1.68,2 1.68,4.72 v 0.16 q -5.36,9.36 -7.68,13.6 8.72,-8.08 10.08,-9.2 0.88,-0.48 1.84,-0.48 1.28,0 2.48,1.36 v 0.16 q -9.12,8.56 -19.92,18.24 -0.24,0.48 -0.8,0.48 -3.28,0 -4.56,-2.64 -0.08,-0.56 -0.08,-0.88 v -0.56 q 0,-2.88 6,-13.2 l 4.64,-8.32 h -0.08 q -2.16,1.44 -4.32,1.44 h -0.4 q -0.32,0.16 -10.96,21.52 -0.72,1.44 -1.92,1.84 -1.36,0.8 -3.12,0.8 h -0.48 q -2.32,-0.08 -2.56,-0.56 1.04,-0.96 3.52,-5.36 3.12,-5.6 5.44,-10.08 h -0.08 q -1.04,0 -3.76,-1.28 v 0.08 q -1.92,4.4 -5.12,9.28 -6,7.92 -11.52,7.92 h -1.04 q -2.32,0 -6.64,-3.92 -1.52,-1.84 -1.76,-2.72 1.12,-8.4 7.12,-17.36 2.64,-3.6 6.88,-7.92 3.04,-2.8 5.12,-4.48 z m -10.16,29.68 0.48,0.08 q 4.08,-0.48 11.92,-13.04 0,-0.08 0.72,-1.52 -1.68,-2.56 -1.68,-4.96 l 0.4,-1.68 q -6.72,7.04 -8.64,11.52 -2.16,4.32 -3.2,9.6 z m -10.03625,-40.72 q 2,0 4.24,2.4 1.36,1.84 1.36,4.08 0,0.56 -3.04,5.84 -1.84,3.28 -1.84,3.44 l 4.8,-0.08 q 4.88,0 8.48,0.88 1.84,1.12 1.84,2.72 v 0.56 q -0.32,2.4 -1.04,3.04 -1.84,-1.76 -5.28,-2.32 -5.44,-1.04 -7.68,-1.04 v 0.08 q 0.72,3.28 0.72,6.48 v 0.8 q 0,11.44 -8.32,20.96 -4.72,4.64 -7.68,6 -2.32,1.44 -7.200004,2.96 -1.6,0.4 -2,0.4 -2.72,0 -4.4,-2 -0.4,-0.88 -0.4,-1.68 v -0.48 q 0,-2.72 4.16,-9.92 l 13.120004,-23.84 h -0.08 q -2.56,0.08 -4.72,0.24 -0.96,-0.72 -0.96,-1.84 0,-0.48 0.56,-0.48 l 6.8,-0.72 q 6.24,-11.28 8.24,-16.08 0,-0.4 0.32,-0.4 z m -2.08,20.56 q -0.32,0.64 -16.960004,30.64 h 0.08 q 3.280004,-1.52 7.920004,-5.52 4.32,-4.48 6.08,-8.16 3.12,-6.64 3.12,-13.2 v -1.44 q 0,-0.72 -0.08,-2.32 z m -21.745004,-6.96 q 0.96,0 2.96,0.48 0.96,0.24 1.92,0.64 3.280004,1.52 3.280004,4.64 v 0.32 q 0,2.08 -1.68,4.96 -2.960004,4.8 -8.240004,8.16 l -7.2,0.16 q -0.88,1.12 -1.36,2.08 -1.92,3.52 -2.24,6 0.08,0.4 0.8,0.4 h 0.08 q 1.84,0 6.56,-2.24 3.44,-1.6 7.2,-4.4 1.6,-1.2 3.760004,-3.2 0.48,0.72 0.48,1.76 0,2 -2.400004,4.72 -1.12,1.2 -2.16,2.16 -2.72,2.24 -5.04,3.68 -4.88,2.96 -7.6,3.36 -0.88,0.16 -1.6,0.16 h -0.32 q -2.4,0 -4.08,-1.76 -1.84,-2.4 -1.84,-5.76 v -0.48 q 0,-4.08 2.8,-10 4.56,-9.68 11.92,-14 1.28,-0.72 2.64,-1.28 1.2,-0.56 1.36,-0.56 z m -7.04,14.8 3.44,0.16 q 1.2,-0.4 2.08,-1.04 0.4,-0.24 1.28,-1.12 0.88,-1.04 1.36,-2.08 0.96,-1.92 0.96,-3.36 0,-0.88 -0.48,-1.12 -0.16,0 -0.16,0 -1.04,0.16 -2.72,1.6 -1.68,1.52 -2.48,2.4 -1.92,2.4 -3.28,4.56 z m -32.64625,13.28 q 0.56,1.44 2.16,2.96 1.52,1.44 3.44,2.16 4.64,1.84 6.64,-1.76 1.12,-2.4 3.52,-6.56 l 1.84,-3.2 q 1.04,-1.92 1.76,-3.28 0.48,-0.88 1.36,-2.56 l 0.72,-1.28 0.72,-1.28 q 1.52,-3.04 2.08,-4.96 1.36,-5.28 -4.64,-5.76 -1.76,1.6 -5.2,4.72 l -1.44,1.36 -1.44,1.28 q -1.76,1.6 -2.88,2.64 l 10.32,-18.64 q 0.24,-2.56 -1.44,-4.48 -1.6,-2 -4.16,-2.24 0.08,1.04 -6.88,13.76 -1.2,2.16 -2.8,5.12 l -1.36,2.48 -0.72,1.2 -0.64,1.2 q -3.04,5.44 -3.92,7.2 -0.48,0.8 -1.36,2.48 l -0.72,1.28 -0.64,1.28 q -1.6,2.96 -2.16,4.88 -1.36,5.2 4.72,5.68 z m 3.04,-5.36 q 0.4,-0.16 0.8,-0.48 v 0 l 11.76,-10 -9.04,15.36 q -1.44,0.4 -2.56,-0.96 -0.96,-1.28 -1.28,-3.44 z m -10.1675,-26.08 q 1.36,0.08 2.8,0.96 1.2,0.8 1.92,2 0.88,1.6 0.88,3.2 v 0.4 q 0,0.32 -0.56,1.36 l -10.4,19.44 11.12,-10.24 q 0.88,-0.56 1.84,-0.56 1.6,0 2.64,1.44 v 0 q -8.96,8.48 -15.92,14.64 -3.44,3.12 -4.96,4.56 -1.36,0 -3.04,-0.72 -1.92,-1.04 -1.92,-2.88 v -0.4 q 0,-2.72 3.6,-9.04 1.52,-2.64 5.84,-10.96 -1.6,1.12 -5.2,4.64 -4.64,4.96 -6.4,7.2 -1.84,2.24 -5.12,6.56 -1.68,2.24 -1.92,2.72 -1.52,2.72 -1.68,2.88 h -0.08 q -1.36,0 -3.2,-0.8 -1.68,-1.04 -1.68,-2.88 v -0.24 q 0,-2.8 3.6,-8.96 2.88,-5.36 7.52,-13.6 2.24,-4 2.24,-5.04 1.76,0.24 2.8,0.96 1.2,0.96 1.84,1.92 0.96,1.6 0.96,3.28 v 0.64 l -0.96,1.68 v 0.08 h 0.08 q 4.24,-5.12 9.76,-11.12 2.96,-3.04 3.6,-3.12 z m -23.30125,-5.28 h 1.04 q 3.52,0 6.72,0.72 v 0.08 q -0.8,0.8 -8.8,9.12 -2.72,-0.4 -4.64,-1.04 -0.64,-0.24 -1.36,-0.48 v -0.08 q 2.96,-7.04 3.44,-8.08 1.92,-0.24 3.6,-0.24 z m -9.44,10.64 q 1.6,0.16 3.2,1.28 1.28,1.2 1.52,1.76 0.96,1.68 0.96,3.2 l -0.08,0.24 v 0.32 q -0.24,0.56 -3.6,6.48 l -4.48,7.92 10.48,-9.6 q 0.96,-0.56 1.6,-0.56 h 0.48 q 1.36,0 2.48,1.36 0.08,0.08 0.08,0.08 -8.8,8.32 -18.0000001,16.48 -3.04,2.8 -3.2,2.88 -1.68,0 -3.44,-0.96 -1.52,-1.04 -1.52,-2.8 v -0.32 q 0,-2.8 3.84,-9.44 2.8,-5.2 7.4400001,-13.2 2.08,-3.84 2.16,-5.12 0,0 0.08,0 z" fill="currentColor"></symbol>
<symbol id="php-logo" viewBox="0 -1 100 50">
    <path d="m7.579 10.123 14.204 0c4.169 0.035 7.19 1.237 9.063 3.604 1.873 2.367 2.491 5.6 1.855 9.699-0.247 1.873-0.795 3.71-1.643 5.512-0.813 1.802-1.943 3.427-3.392 4.876-1.767 1.837-3.657 3.003-5.671 3.498-2.014 0.495-4.099 0.742-6.254 0.742l-6.36 0-2.014 10.07-7.367 0 7.579-38.001 0 0m6.201 6.042-3.18 15.9c0.212 0.035 0.424 0.053 0.636 0.053 0.247 0 0.495 0 0.742 0 3.392 0.035 6.219-0.3 8.48-1.007 2.261-0.742 3.781-3.321 4.558-7.738 0.636-3.71 0-5.848-1.908-6.413-1.873-0.565-4.222-0.83-7.049-0.795-0.424 0.035-0.83 0.053-1.219 0.053-0.353 0-0.724 0-1.113 0l0.053-0.053"/>
    <path d="m41.093 0 7.314 0-2.067 10.123 6.572 0c3.604 0.071 6.289 0.813 8.056 2.226 1.802 1.413 2.332 4.099 1.59 8.056l-3.551 17.649-7.42 0 3.392-16.854c0.353-1.767 0.247-3.021-0.318-3.763-0.565-0.742-1.784-1.113-3.657-1.113l-5.883-0.053-4.346 21.783-7.314 0 7.632-38.054 0 0"/>
    <path d="m70.412 10.123 14.204 0c4.169 0.035 7.19 1.237 9.063 3.604 1.873 2.367 2.491 5.6 1.855 9.699-0.247 1.873-0.795 3.71-1.643 5.512-0.813 1.802-1.943 3.427-3.392 4.876-1.767 1.837-3.657 3.003-5.671 3.498-2.014 0.495-4.099 0.742-6.254 0.742l-6.36 0-2.014 10.07-7.367 0 7.579-38.001 0 0m6.201 6.042-3.18 15.9c0.212 0.035 0.424 0.053 0.636 0.053 0.247 0 0.495 0 0.742 0 3.392 0.035 6.219-0.3 8.48-1.007 2.261-0.742 3.781-3.321 4.558-7.738 0.636-3.71 0-5.848-1.908-6.413-1.873-0.565-4.222-0.83-7.049-0.795-0.424 0.035-0.83 0.053-1.219 0.053-0.353 0-0.724 0-1.113 0l0.053-0.053"/>
</symbol>
<symbol id="js-logo" viewBox="0 0 32 32"><path d="M.384.67v31.296H31.68V.67H.384zm16.334 26.772c-.461.937-1.342 1.553-2.362 1.85-1.568.36-3.067.155-4.183-.515-.747-.458-1.33-1.163-1.725-1.975.794-.485 1.586-.973 2.38-1.458.021.009.083.122.167.268.303.509.565.869 1.08 1.121.506.172 1.615.283 2.044-.607.262-.452.178-1.936.178-3.545 0-2.529.012-5.016.012-7.576h2.927c0 2.688.015 5.383 0 8.067.006 1.645.149 3.14-.518 4.369zm12.144-.827c-1.017 3.481-6.691 3.594-8.957 1.294-.479-.541-.779-.824-1.065-1.449 1.205-.693 1.205-.693 2.377-1.371.637.979 1.226 1.517 2.285 1.737 1.437.175 2.883-.318 2.559-1.844-.333-1.247-2.942-1.55-4.718-2.883-1.803-1.211-2.225-4.153-.744-5.834.494-.622 1.336-1.086 2.219-1.309l.922-.119c1.77-.036 2.877.431 3.689 1.339.226.229.41.476.756 1.012-.943.601-.94.595-2.291 1.47-.289-.622-.767-1.012-1.273-1.181-.785-.238-1.776.021-1.981.851-.071.256-.056.494.057.916.318.726 1.386 1.041 2.344 1.481 2.758 1.119 3.689 2.317 3.918 3.745.22 1.229-.054 2.026-.095 2.145z"/></symbol>
<symbol viewBox="0 0 36 36" id="love"><path d="M35.885 11.833c0-5.45-4.418-9.868-9.867-9.868-3.308 0-6.227 1.633-8.018 4.129-1.791-2.496-4.71-4.129-8.017-4.129-5.45 0-9.868 4.417-9.868 9.868 0 .772.098 1.52.266 2.241C1.751 22.587 11.216 31.568 18 34.034c6.783-2.466 16.249-11.447 17.617-19.959.17-.721.268-1.469.268-2.242z"/></symbol>
<symbol id="copy" viewBox="0 0 512 512"><path d="M296 48H176.5C154.4 48 136 65.4 136 87.5V96h-7.5C106.4 96 88 113.4 88 135.5v288c0 22.1 18.4 40.5 40.5 40.5h208c22.1 0 39.5-18.4 39.5-40.5V416h8.5c22.1 0 39.5-18.4 39.5-40.5V176L296 48zm0 44.6l83.4 83.4H296V92.6zm48 330.9c0 4.7-3.4 8.5-7.5 8.5h-208c-4.4 0-8.5-4.1-8.5-8.5v-288c0-4.1 3.8-7.5 8.5-7.5h7.5v255.5c0 22.1 10.4 32.5 32.5 32.5H344v7.5zm48-48c0 4.7-3.4 8.5-7.5 8.5h-208c-4.4 0-8.5-4.1-8.5-8.5v-288c0-4.1 3.8-7.5 8.5-7.5H264v128h128v167.5z"/></symbol>
<symbol id="checkmark-circle" viewBox="0 0 512 512"><path d="M256 48C141.6 48 48 141.6 48 256s93.6 208 208 208 208-93.6 208-208S370.4 48 256 48zm-42.7 318.9L106.7 260.3l29.9-29.9 76.8 76.8 162.1-162.1 29.9 29.9-192.1 191.9z"/></symbol>
</svg>
